<?xml version="1.0" standalone="no"?><!DOCTYPE svg PUBLIC "-//W3C//DTD SVG 1.1//EN" "http://www.w3.org/Graphics/SVG/1.1/DTD/svg11.dtd"><svg t="1626416970249" class="icon" viewBox="0 0 1024 1024" version="1.1" xmlns="http://www.w3.org/2000/svg" p-id="8489" xmlns:xlink="http://www.w3.org/1999/xlink" width="200" height="200"><defs><style type="text/css"></style></defs><path d="M810.414 479.982 394.186 479.982c-62.534 0-140.077 35.52-180.599 83.546L44.994 761.637l-2.501 3.002c0-4.002-0.5-8.505-0.5-12.507L41.993 271.868c0-61.534 50.528-112.062 112.062-112.062l160.088 0c61.534 0 112.062 50.528 112.062 112.062l0 16.009 272.149 0c61.534 0 112.062 50.528 112.062 112.062L810.416 479.982zM966.5 605.051 798.407 803.16c-29.016 34.019-88.048 61.033-132.072 61.033L122.036 864.193c-18.01 0-43.524-5.503-43.524-28.016 0-12.006 7.504-24.013 15.508-33.018l168.093-198.109c29.016-34.019 88.048-61.033 132.072-61.033l544.299 0c18.01 0 43.523 5.503 43.523 28.016C982.008 584.039 974.504 596.046 966.5 605.051z" p-id="8490"></path></svg>