<?xml version="1.0" standalone="no"?><!DOCTYPE svg PUBLIC "-//W3C//DTD SVG 1.1//EN" "http://www.w3.org/Graphics/SVG/1.1/DTD/svg11.dtd"><svg t="1626277935687" class="icon" viewBox="0 0 1024 1024" version="1.1" xmlns="http://www.w3.org/2000/svg" p-id="2059" xmlns:xlink="http://www.w3.org/1999/xlink" width="200" height="200"><defs><style type="text/css"></style></defs><path d="M512 298.666667c-40.533333 0-74.666667 29.866667-78.933333 66.133333h160c-6.4-38.4-40.533333-66.133333-81.066667-66.133333zM322.133333 725.333333H704V405.333333H322.133333v320zM490.666667 503.466667c0-10.666667 10.666667-21.333333 21.333333-21.333334s21.333333 8.533333 21.333333 21.333334V618.666667c0 10.666667-10.666667 21.333333-21.333333 21.333333s-21.333333-8.533333-21.333333-21.333333v-115.2z" fill="#3D7EFF" p-id="2060"></path><path d="M512 0C228.266667 0 0 228.266667 0 512s228.266667 512 512 512 512-228.266667 512-512S795.733333 0 512 0z m234.666667 725.333333c0 23.466667-19.2 42.666667-44.8 42.666667H322.133333c-23.466667 0-44.8-19.2-44.8-42.666667V405.333333c0-23.466667 19.2-42.666667 44.8-42.666666h66.133334c6.4-59.733333 59.733333-106.666667 123.733333-106.666667s117.333333 46.933333 123.733333 108.8h66.133334c23.466667 0 44.8 19.2 44.8 42.666667V725.333333z" fill="#3D7EFF" p-id="2061"></path></svg>