<?xml version="1.0" standalone="no"?><!DOCTYPE svg PUBLIC "-//W3C//DTD SVG 1.1//EN" "http://www.w3.org/Graphics/SVG/1.1/DTD/svg11.dtd"><svg t="1626412018019" class="icon" viewBox="0 0 1024 1024" version="1.1" xmlns="http://www.w3.org/2000/svg" p-id="2114" xmlns:xlink="http://www.w3.org/1999/xlink" width="200" height="200"><defs><style type="text/css"></style></defs><path d="M261.973333 682.666667H761.173333a354.013867 354.013867 0 0 1-35.84 41.813333c-59.170133 59.170133-130.56 88.746667-214.186666 88.746667s-155.016533-29.576533-214.186667-88.746667A302.592 302.592 0 0 1 261.973333 682.666667zM682.666667 400.213333a17.066667 17.066667 0 0 1-17.066667-17.066666c0-6.8096-2.491733-12.475733-7.799467-17.800534-4.727467-4.744533-10.3936-6.946133-17.800533-6.946133-7.6288 0-13.704533 2.338133-19.063467 7.355733A24.746667 24.746667 0 0 0 614.4 383.146667a17.066667 17.066667 0 1 1-34.133333 0c0-15.8208 5.563733-29.781333 16.554666-41.5232 12.561067-11.793067 26.811733-17.3568 43.178667-17.3568 16.5888 0 30.702933 5.700267 41.9328 16.964266 11.810133 11.793067 17.800533 25.9072 17.800533 41.915734a17.066667 17.066667 0 0 1-17.066666 17.066666z m-256 0a17.066667 17.066667 0 0 1-17.066667-17.066666c0-6.8096-2.474667-12.475733-7.799467-17.800534-4.744533-4.744533-10.3936-6.946133-17.800533-6.946133-7.645867 0-13.704533 2.338133-19.063467 7.355733A24.7808 24.7808 0 0 0 358.4 383.146667a17.066667 17.066667 0 0 1-34.133333 0c0-15.803733 5.563733-29.781333 16.554666-41.5232 12.561067-11.793067 26.811733-17.3568 43.178667-17.3568 16.5888 0 30.702933 5.700267 41.949867 16.964266 11.793067 11.793067 17.783467 25.9072 17.783466 41.915734a17.066667 17.066667 0 0 1-17.066666 17.066666z" p-id="2115"></path><path d="M512 955.733333c-121.890133 0-227.584-43.8784-314.146133-130.440533C111.872 739.2768 68.266667 633.890133 68.266667 512c0-121.856 43.588267-227.549867 129.536-314.112C284.450133 111.854933 390.126933 68.266667 512 68.266667c121.9072 0 227.293867 43.605333 313.2928 129.5872C911.854933 284.416 955.733333 390.109867 955.733333 512c0 121.924267-43.895467 227.328-130.474666 313.326933C739.328 911.837867 633.924267 955.733333 512 955.733333z m0-853.333333c-112.5376 0-210.1248 40.2432-290.065067 119.620267C142.6432 301.8752 102.4 399.479467 102.4 512c0 112.503467 40.226133 209.783467 119.586133 289.160533C301.909333 881.083733 399.496533 921.6 512 921.6c112.4864 0 209.7664-40.4992 289.1264-120.405333C881.1008 721.7664 921.6 624.4864 921.6 512c0-112.503467-40.516267-210.090667-120.439467-290.013867C721.800533 142.626133 624.520533 102.4 512 102.4z m-0.853333 727.893333c-87.9104 0-164.0448-31.5392-226.2528-93.7472a322.491733 322.491733 0 0 1-36.949334-44.168533 301.329067 301.329067 0 0 1-44.151466-90.197333A17.117867 17.117867 0 0 1 220.16 580.266667H802.133333c5.376 0 10.4448 2.525867 13.687467 6.843733 3.208533 4.317867 4.215467 9.898667 2.679467 15.069867a313.514667 313.514667 0 0 1-43.588267 90.589866 375.773867 375.773867 0 0 1-37.512533 43.776c-62.208 62.225067-138.325333 93.7472-226.2528 93.7472zM297.079467 699.733333c3.857067 4.334933 7.8336 8.567467 11.946666 12.680534 56.3712 56.354133 122.487467 83.746133 202.120534 83.746133 78.5408 0 146.551467-28.177067 202.120533-83.746133 4.113067-4.113067 8.1408-8.3456 12.049067-12.680534H297.079467z m-26.180267-34.133333h481.1776a277.4528 277.4528 0 0 0 26.197333-51.2H244.053333c7.0656 17.954133 16.042667 35.089067 26.845867 51.2z" p-id="2116"></path></svg>